<svg xmlns="http://www.w3.org/2000/svg" version="1.0" viewBox="256 256 512 512">
  <path fill="#BF8000"
    d="M256 512v256h3.8l3.7-.1 7.1-13.1c6.3-11.6 7-13.5 6.2-16-2.3-6.4.4-14.4 20.8-62.2 10.8-25.3 21.2-48.1 23-50.6s6.3-7 10-10c13.3-10.8 12.2-9.2 14.4-22 1-6.3 2.8-23 4-37s2.6-26 3.2-26.7 3.2-1.3 5.7-1.3h4.8l6.4-17.3c6-16.1 6.7-17.5 11.5-22.2 4.7-4.6 5.5-6 8.9-16.3 2-6.2 3.5-11.5 3.4-11.6-.2-.2-3.4-2.2-7.1-4.6-3.8-2.3-6.8-4.8-6.8-5.5 0-1.3 16.1-49.2 18.5-55.2 1.3-3.2 1.5-3.2 8.6-3.5l7.3-.3 9.7-21.2c11.1-24.4 15.8-32.1 24.9-41.4 8.8-8.8 15.1-11.8 26.3-12.6 8.6-.6 8.8-.7 10.8-4 1.2-1.9 2-3.5 1.8-3.6-.2-.2-2-1-4-1.9-3.6-1.6-3.6-1.7-4.2-9.4-1.3-14.5-.9-18.4 2.2-24.9 2.7-5.6 8.4-12.1 14.1-15.9 2.3-1.5-5.8-1.6-118.3-1.6H256zm176.3 40.8c-.7.4-9.9 20.3-20.4 44.2q-19.05 43.35-23.4 49.5c-2.3 3.3-19.4 25.6-37.9 49.5-21.6 27.9-34 44.8-34.5 47-.5 1.9-1.2 8.3-1.6 14.2l-.7 10.8h127l.5-2.3c.3-1.2.8-4.9 1.2-8.2.3-3.3 1.2-7.8 2-10 4.9-14.1 12.4-43.5 16.4-64.6l4.7-24.6 11.2-20.3c6.1-11.1 10.9-20.6 10.6-21.1-.2-.4-2.7-2-5.3-3.5-3.9-2.1-6.7-5-13.4-14.3-4.7-6.4-12.4-17.9-17.2-25.6C438.8 553 438 552 435.6 552c-1.1 0-2.7.4-3.3.8" />
  <path fill="#BFBF40"
    d="M478.1 292.6c0 1.1.3 1.4.6.6.3-.7.2-1.6-.1-1.9-.3-.4-.6.2-.5 1.3m-1.8 25.1c.9.2 2.3.2 3 0 .6-.3-.1-.5-1.8-.5-1.6 0-2.2.2-1.2.5m-28.9 12.5-2.9 3.3 3.3-2.9c3-2.8 3.7-3.6 2.9-3.6-.2 0-1.6 1.5-3.3 3.2" />
  <path fill="#FFBFBF"
    d="m487.4 264.2-1.9 2.3 2.3-1.9c2.1-1.8 2.7-2.6 1.9-2.6-.2 0-1.2 1-2.3 2.2m-9.3 19.4c0 1.1.3 1.4.6.6.3-.7.2-1.6-.1-1.9-.3-.4-.6.2-.5 1.3m1.1 18.4c0 1.4.2 1.9.5 1.2.2-.6.2-1.8 0-2.5-.3-.6-.5-.1-.5 1.3m-27.8 25.2-1.9 2.3 2.3-1.9c2.1-1.8 2.7-2.6 1.9-2.6-.2 0-1.2 1-2.3 2.2m-6.5 6.5-2.4 2.8 2.8-2.4c2.5-2.3 3.2-3.1 2.4-3.1-.2 0-1.4 1.2-2.8 2.7m-42.2 60c1.8.2 5 .2 7 0 2.1-.2.7-.4-3.2-.4-3.8 0-5.5.2-3.8.4m-23.8 98-3.4 3.8 3.8-3.4c2-1.9 3.7-3.6 3.7-3.8 0-.8-.8 0-4.1 3.4m-27.8 43.9c0 1.1.3 1.4.6.6.3-.7.2-1.6-.1-1.9-.3-.4-.6.2-.5 1.3m-1 12c0 1.1.3 1.4.6.6.3-.7.2-1.6-.1-1.9-.3-.4-.6.2-.5 1.3m-1 12c0 1.1.3 1.4.6.6.3-.7.2-1.6-.1-1.9-.3-.4-.6.2-.5 1.3m-1 11c0 1.1.3 1.4.6.6.3-.7.2-1.6-.1-1.9-.3-.4-.6.2-.5 1.3m-1 12c0 1.1.3 1.4.6.6.3-.7.2-1.6-.1-1.9-.3-.4-.6.2-.5 1.3M477.5 610c1 1.1 2 2 2.3 2s-.3-.9-1.3-2-2-2-2.3-2 .3.9 1.3 2m-139.6.7c-1.3 1.6-1.2 1.7.4.4s2.1-2.1 1.3-2.1c-.2 0-1 .8-1.7 1.7M325 621.5c-2.4 2.5-4.2 4.5-3.9 4.5s2.5-2 4.9-4.5 4.2-4.5 3.9-4.5-2.5 2-4.9 4.5m49.9 41.2c-1.3 1.6-1.2 1.7.4.4s2.1-2.1 1.3-2.1c-.2 0-1 .8-1.7 1.7m-10 13c-1.3 1.6-1.2 1.7.4.4s2.1-2.1 1.3-2.1c-.2 0-1 .8-1.7 1.7m-7 9c-1.3 1.6-1.2 1.7.4.4s2.1-2.1 1.3-2.1c-.2 0-1 .8-1.7 1.7m-10 13c-1.3 1.6-1.2 1.7.4.4.9-.7 1.7-1.5 1.7-1.7 0-.8-.8-.3-2.1 1.3m-17 22c-1.3 1.6-1.2 1.7.4.4.9-.7 1.7-1.5 1.7-1.7 0-.8-.8-.3-2.1 1.3m-16.8 28.9c0 1.1.3 1.4.6.6.3-.7.2-1.6-.1-1.9-.3-.4-.6.2-.5 1.3m129 7c0 1.1.3 1.4.6.6.3-.7.2-1.6-.1-1.9-.3-.4-.6.2-.5 1.3m-130 6c0 1.1.3 1.4.6.6.3-.7.2-1.6-.1-1.9-.3-.4-.6.2-.5 1.3" />
  <path fill="#FFF"
    d="M494.4 259.4c-6.1 4.1-9.6 8.2-13 14.7-2 4.1-2.4 6.3-2.4 13.7 0 4.9.3 11 .6 13.5.6 4.1 1 4.7 4 5.7 4.6 1.5 4.8 2.3 2.2 6.9l-2.2 3.9-8.6.4c-10.8.4-17.1 3.3-25.8 12-9.3 9.2-14.5 17.7-24.9 40.7-5.2 11.2-9.8 21.1-10.4 21.8-.8.8-3.5 1.3-7.9 1.3h-6.8l-1.5 4.2c-8.8 25.2-17.7 52-17.7 53 0 .7 2.2 2.6 4.8 4.1 2.6 1.6 5.8 3.6 7.1 4.6l2.4 1.8-3.8 11.4c-3.3 10.2-4.3 12-8.9 16.7-4.6 4.8-5.7 6.8-11.6 22.5l-6.6 17.2-4.9.3c-2.8.2-5.3.6-5.7 1s-1.7 11.6-2.8 24.7c-1.1 13.2-2.9 30.1-4.1 37.6l-2.2 13.7-6.6 5c-8.7 6.7-16.5 14.7-18.9 19.7-1.1 2.2-10.7 24.2-21.3 49l-19.2 45-.1 9.5-.2 9.5-6.2 11.1c-3.4 6.1-6.2 11.4-6.2 11.7 0 .4 10.8.7 24 .7h24v-2.8c.1-7.5 2.1-23.4 3.1-25.4.7-1.3 17.2-23 36.7-48.3 19.6-25.2 36.6-47.7 38-50 1.3-2.2 10.8-23.1 21.1-46.5 16.8-38.4 18.9-42.5 21.4-43.4q2.85-1.05 4.5 0c.9.6 6.2 8.3 11.7 17 11.3 18.1 22.3 34.1 27.2 39.5 1.8 1.9 5 4.4 7.2 5.4 2.2.9 4.2 2.4 4.5 3.1.3.8-4.6 10.7-10.8 22.1l-11.4 20.8-4.6 24c-2.7 14-7.1 32.8-10.7 45-4.9 16.9-8.7 33.7-8.9 38.7 0 .5 18.9.8 42 .8 41.3 0 41.9 0 43-2.1.6-1.1 1-3 .8-4.2-.3-1.9-2.3-2.9-13.8-6.7-7.5-2.5-14.1-4.9-14.8-5.3-1.4-.9-9.2-12.2-9.2-13.3 0-.3 3.3-4.1 7.4-8.3l7.5-7.6 20.8-50.5 20.7-50.5v-8c-.1-6-.7-9.5-2.6-14-3.4-8.5-42.5-79.4-45.7-82.8-2.7-2.9-3.9-10-4-24.4l-.1-6.2 4.3-.3 4.2-.3 12.7-24.5 12.6-24.5-2.9-3.6c-1.6-2-2.9-4.1-2.9-4.7 0-1.2 7.9-10.2 9.1-10.2.5 0 6 3 12.4 6.6l11.4 6.7 4.8-1.2c2.6-.7 7.4-2.4 10.5-3.8 6.2-2.7 6.7-3.5 13.4-20 1.6-4 3.4-7.3 4.1-7.3s1.7 2.7 2.4 6c.6 3.3 1.4 6.2 1.8 6.4.6.4 29-6 29.6-6.6.2-.2-1.2-7.1-3.2-15.3l-3.5-15 2.1-4c1.1-2.2 2.8-7.7 3.7-12.3l1.7-8.2H704v-16h32v-8h-32v-6c0-7.3-1.7-7.9-5.6-2l-2.7 4-70.6-.2-70.6-.3v-3c0-2.9.1-3 4.5-2.7l4.5.3 2.8-11.2c2.8-11.4 2.7-12.8-1-12.9-.6 0-2.9-3.8-5.2-8.4-4.7-9.7-12.1-17.3-21.6-22.1-5.8-2.9-6.4-3-22.5-3.3l-16.5-.3z" />
  <path fill="#BFBFBF"
    d="M551 268.5c1.3 1.4 2.6 2.5 2.8 2.5.3 0-.5-1.1-1.8-2.5s-2.6-2.5-2.8-2.5c-.3 0 .5 1.1 1.8 2.5m3.5 45.5c-.3.6.1.7.9.4 1.8-.7 2.1-1.4.7-1.4-.6 0-1.3.4-1.6 1m-28.6 106.7-2.4 2.8 2.8-2.4c1.5-1.4 2.7-2.6 2.7-2.8 0-.8-.8-.1-3.1 2.4m-31.8 76.9c0 1.1.3 1.4.6.6.3-.7.2-1.6-.1-1.9-.3-.4-.6.2-.5 1.3m3.4 16.4c1 1.1 2 2 2.3 2s-.3-.9-1.3-2-2-2-2.3-2 .3.9 1.3 2m0 214.2-7 7.3 7.3-7c6.7-6.4 7.7-7.5 6.9-7.5-.1 0-3.4 3.3-7.2 7.2" />
  <path fill="#8080BF"
    d="M704.3 319.5c0 2.2.2 3 .4 1.7.2-1.2.2-3 0-4-.3-.9-.5.1-.4 2.3m31.9 8.5c0 1.9.2 2.7.5 1.7.2-.9.2-2.5 0-3.5-.3-.9-.5-.1-.5 1.8m-31.9 12c0 4.1.2 5.8.4 3.7.2-2 .2-5.4 0-7.5-.2-2-.4-.3-.4 3.8M494.1 494.6c0 1.1.3 1.4.6.6.3-.7.2-1.6-.1-1.9-.3-.4-.6.2-.5 1.3" />
  <path fill="#404080"
    d="M558.8 314.7c.6.2 1.8.2 2.5 0 .6-.3.1-.5-1.3-.5s-1.9.2-1.2.5m31 5c19.3.2 51.1.2 70.5 0 19.3-.1 3.5-.2-35.3-.2s-54.6.1-35.2.2m123 4c4.6.2 11.8.2 16 0 4.2-.1.5-.3-8.3-.3s-12.3.2-7.7.3m0 9c4.6.2 11.8.2 16 0 4.2-.1.5-.3-8.3-.3s-12.3.2-7.7.3m-187.4 89.5-1.9 2.3 2.3-1.9c2.1-1.8 2.7-2.6 1.9-2.6-.2 0-1.2 1-2.3 2.2m50.5-.5c-1.3 1.6-1.2 1.7.4.4s2.1-2.1 1.3-2.1c-.2 0-1 .8-1.7 1.7m-79.1 63c.6.2 1.8.2 2.5 0 .6-.3.1-.5-1.3-.5s-1.9.2-1.2.5m-2.6 3.3c0 1.9.2 2.7.5 1.7.2-.9.2-2.5 0-3.5-.3-.9-.5-.1-.5 1.8m1 16c0 1.9.2 2.7.5 1.7.2-.9.2-2.5 0-3.5-.3-.9-.5-.1-.5 1.8m2.8 9.4c0 .2.8 1 1.8 1.7 1.5 1.3 1.6 1.2.3-.4s-2.1-2.1-2.1-1.3m48.1 90.2c0 1.1.3 1.4.6.6.3-.7.2-1.6-.1-1.9-.3-.4-.6.2-.5 1.3m-48.6 125.6-7 7.3 7.3-7c6.7-6.4 7.7-7.5 6.9-7.5-.1 0-3.4 3.3-7.2 7.2" />
  <path fill="#000040"
    d="M540.5 259.3c8.8 4.7 16.5 12.8 20.9 22 2.8 5.8 4.3 7.8 6.2 8.3 1.3.3 2.4.9 2.4 1.3 0 .3-1.2 5.9-2.7 12.4l-2.7 11.8-4.6-.3c-4-.2-4.5 0-4.8 2l-.3 2.2H695l2.7-4c1.9-3 3.2-4 4.7-3.8 1.8.3 2.1 1.1 2.4 6l.3 5.8H737v10h-31.9l-.3 7.7-.3 7.8-40.7.3c-22.5.1-40.8.4-40.8.6 0 3-3.7 16.9-5.1 19.4l-1.9 3.3 3.6 15.6c1.9 8.5 3.3 15.7 3.1 15.9-.9.9-30.9 7.4-31.8 6.8-.5-.3-.9-1.5-1-2.7 0-1.2-.6-3.9-1.2-6.1l-1.2-3.9-4.8 11.7c-5.4 12.7-6.8 14.3-15.5 17.7-10 3.7-13.2 3.2-25.2-3.9l-10.5-6.2-4.4 4.4-4.4 4.4 3.2 4.4 3.2 4.4-12.7 24.5c-6.9 13.4-13.1 24.7-13.8 25.1-.6.4-2.6.8-4.5.8h-3.4l.7 12.7c.7 11.5 1 13.1 3.1 15.3 2.4 2.6 33.9 58.9 42.7 76.4 5.4 10.6 7.4 19.9 6.1 28-.3 2.2-9.8 26.6-21 54.1l-20.5 50-7.4 7.5-7.4 7.5 3.6 5.5c2 3 4.4 6.1 5.2 6.8.9.6 6.8 2.8 13.2 4.7 17.2 5.3 16.3 4.8 15.7 10l-.5 4.5H768V256H651.3l-116.8.1z" />
  <path fill="#BF8040"
    d="M471.8 317.7c.6.2 1.8.2 2.5 0 .6-.3.1-.5-1.3-.5s-1.9.2-1.2.5m-147.9 304-2.4 2.8 2.8-2.4c2.5-2.3 3.2-3.1 2.4-3.1-.2 0-1.4 1.2-2.8 2.7" />
  <path fill="gray" d="M622.7 348.7c-.5.7 29.3.7 66.3 0 8-.1-3.6-.4-25.7-.5s-40.4.1-40.6.5" />
  <path fill="#FFBF80"
    d="M478.2 288c0 1.9.2 2.7.5 1.7.2-.9.2-2.5 0-3.5-.3-.9-.5-.1-.5 1.8m2.6 29.7c.7.3 1.6.2 1.9-.1.4-.3-.2-.6-1.3-.5-1.1 0-1.4.3-.6.6m-96.9 169c-1.3 1.6-1.2 1.7.4.4.9-.7 1.7-1.5 1.7-1.7 0-.8-.8-.3-2.1 1.3m-28.1 43c1.2.2 3.2.2 4.5 0 1.2-.2.2-.4-2.3-.4s-3.5.2-2.2.4m-5.6 14.3c0 1.4.2 1.9.5 1.2.2-.6.2-1.8 0-2.5-.3-.6-.5-.1-.5 1.3m84.6 7.7c.7.3 1.6.2 1.9-.1.4-.3-.2-.6-1.3-.5-1.1 0-1.4.3-.6.6m-85.6 4.3c0 1.4.2 1.9.5 1.2.2-.6.2-1.8 0-2.5-.3-.6-.5-.1-.5 1.3m-1.1 11.6c0 1.1.3 1.4.6.6.3-.7.2-1.6-.1-1.9-.3-.4-.6.2-.5 1.3m-.9 11.4c0 1.4.2 1.9.5 1.2.2-.6.2-1.8 0-2.5-.3-.6-.5-.1-.5 1.3m-33 173c0 1.4.2 1.9.5 1.2.2-.6.2-1.8 0-2.5-.3-.6-.5-.1-.5 1.3m-1 13c0 1.4.2 1.9.5 1.2.2-.6.2-1.8 0-2.5-.3-.6-.5-.1-.5 1.3" />
</svg>